# xmcd
#
# Track frame offsets:
#	150
#	4502
#	19597
#	38465
#	49910
#	60453
#	68751
#	80620
#	89099
#	101599
#	111960
#	124016
#	136462
#	146895
#	158992
#	171575
#	182654
#	193975
#	205280
#	224175
#	236518
#	248909
#	264218
#	275186
#	288199
#	294379
#
# Disc length: 4052 seconds
#
# Revision: 1
# Processed by: cddbd v1.5.1PL2 Copyright (c) Steve Scherf et al.
# Submitted via: audiograbber 1.83.01
#
DISCID=910fd21a
DTITLE=В. Головня, Б. Вахнюк, С. Матвеенко - Три четверти
DYEAR=2001
DGENRE=Ballad
TTITLE0=Вадим Головня - Девочка и весна
TTITLE1=Вадим Головня - Любви весенние глаза
TTITLE2=Вадим Головня - Шестидесятники
TTITLE3=Вадим Головня - Прислушайся
TTITLE4=Вадим Головня - Давай с тобою говорить
TTITLE5=Вадим Головня - Спорт
TTITLE6=Вадим Головня - Ангел мой
TTITLE7=Вадим Головня - Ямщик
TTITLE8=Вадим Головня - С ярмарки
TTITLE9=Вадим Головня - Детки
TTITLE10=Борис Вахнюк - Песня о моём отце
TTITLE11=Борис Вахнюк - Зеленоватые слегка
TTITLE12=Борис Вахнюк - Терема
TTITLE13=Борис Вахнюк - Полумёртвый город
TTITLE14=Борис Вахнюк - Колыбельный вальсок
TTITLE15=Борис Вахнюк - Колея моя семиструнная
TTITLE16=Борис Вахнюк - Я - просто берег
TTITLE17=Борис Вахнюк - Танго Кавалерственной Дамы
TTITLE18=Сергей Матвеенко - Русский блюз
TTITLE19=Сергей Матвеенко - Амадей Петрович Кацман
TTITLE20=Сергей Матвеенко - Донна Аморе
TTITLE21=Сергей Матвеенко - Предвыборные страдания
TTITLE22=Сергей Матвеенко - Театральный разъезд
TTITLE23=Сергей Матвеенко - Одиночество
TTITLE24=Сергей Матвеенко - Паровоз
TTITLE25=Сергей Матвеенко - Провожальная
EXTD=
EXTT0=
EXTT1=
EXTT2=
EXTT3=
EXTT4=
EXTT5=
EXTT6=
EXTT7=
EXTT8=
EXTT9=
EXTT10=
EXTT11=
EXTT12=
EXTT13=
EXTT14=
EXTT15=
EXTT16=
EXTT17=
EXTT18=
EXTT19=
EXTT20=
EXTT21=
EXTT22=
EXTT23=
EXTT24=
EXTT25=
PLAYORDER=
